<svg xmlns="http://www.w3.org/2000/svg" width="47.716" height="50.001" viewBox="0 0 47.716 50.001">
  <g id="DevOps_Automation" data-name="DevOps Automation" transform="translate(-82.201 0.889)">
    <path id="Path_14662" data-name="Path 14662" d="M273.154,31.219a.92.92,0,0,1-.283-.045l-.008,0-3.475-1.189a.918.918,0,0,1-.6-.971l.337-2.885a13.144,13.144,0,0,1-2.675-2.367l-2.816.7a.921.921,0,0,1-1.039-.469l-.006-.012-1.607-3.3a.909.909,0,0,1,.254-1.117l2.25-1.807a13.178,13.178,0,0,1-.26-3.557l-2.481-1.5a.918.918,0,0,1-.4-1.071l.112-.348h.009l1.08-3.128a.921.921,0,0,1,.972-.6l2.93.33A13.046,13.046,0,0,1,267.8,5.213l-.689-2.824a.9.9,0,0,1,.483-1.043l3.275-1.58A.9.9,0,0,1,272,.021l1.8,2.247a13.435,13.435,0,0,1,2.584-.251c.178,0,.352.01.52.02s.306.018.455.018l1.5-2.485a.914.914,0,0,1,1.01-.431l.024.006L283.352.36a.908.908,0,0,1,.61.97l-.338,2.891a12.835,12.835,0,0,1,2.671,2.366l2.842-.7a.913.913,0,0,1,1.016.49l1.606,3.289a.907.907,0,0,1-.254,1.121l-2.25,1.8a12.938,12.938,0,0,1,.217,3.559l2.483,1.5a.913.913,0,0,1,.439,1.073l-.109.353h-.013l-1.077,3.127a.906.906,0,0,1-.973.612l-.051-.006-2.835-.339a13.224,13.224,0,0,1-2.322,2.64l.7,2.825a.917.917,0,0,1-.486,1.039l0,0-3.3,1.607a.919.919,0,0,1-.4.092.908.908,0,0,1-.717-.347l-1.8-2.251a12.753,12.753,0,0,1-2.558.26h-.025c-.178,0-.353-.01-.522-.02s-.306-.018-.452-.018l-1.505,2.483A.925.925,0,0,1,273.154,31.219Zm-3.367-2.158,3.332,1.14,1.5-2.47a.91.91,0,0,1,.84-.442c.172,0,.34.01.5.02s.315.018.465.018h.024a11.752,11.752,0,0,0,2.406-.25.914.914,0,0,1,.9.321l1.8,2.245,3.175-1.547-.7-2.812a.9.9,0,0,1,.29-.905,12.221,12.221,0,0,0,2.212-2.514.914.914,0,0,1,.862-.405h.005l2.874.343,1.143-3.32-2.505-1.509a.909.909,0,0,1-.44-.847v-.006a11.936,11.936,0,0,0-.206-3.386.91.91,0,0,1,.322-.9l2.244-1.8L289.284,6.88l-2.806.692a.906.906,0,0,1-.906-.291,11.842,11.842,0,0,0-2.528-2.244.9.9,0,0,1-.42-.884l.335-2.87L279.691.133l-1.5,2.482a.917.917,0,0,1-.826.441c-.179,0-.351-.01-.518-.02s-.314-.018-.463-.018a12.43,12.43,0,0,0-2.438.242.891.891,0,0,1-.9-.326l-1.8-2.24L268.1,2.214l.688,2.817a.9.9,0,0,1-.291.9,12.048,12.048,0,0,0-2.246,2.531.891.891,0,0,1-.863.411l-2.927-.33-1.147,3.325,2.479,1.5a.9.9,0,0,1,.432.849,12.175,12.175,0,0,0,.25,3.382.892.892,0,0,1-.325.9l-2.24,1.8,1.544,3.168,2.874-.711h.02a.922.922,0,0,1,.826.311,12.147,12.147,0,0,0,2.543,2.25.9.9,0,0,1,.408.853v.007Zm6.543-6.611a7.189,7.189,0,0,1-5.6-2.673,7.341,7.341,0,0,1,.3-9.611h-.373l1.312-.912a7.618,7.618,0,0,1,6.906-.918l.006,0a7.289,7.289,0,0,1,4.289,9.369l-.6,1.624-.06-.287a7.32,7.32,0,0,1-6.164,3.4Zm-3.763-12.388a6.553,6.553,0,0,0-2.385,6.175,6.329,6.329,0,0,0,3.983,4.823,6.2,6.2,0,0,0,2.164.389h.016a6.312,6.312,0,0,0,5.893-4.092l.012-.032a6.289,6.289,0,0,0-3.71-8.047,6.617,6.617,0,0,0-5.973.783Z" transform="translate(-162.518 0)" fill="#161616"/>
    <path id="Path_14663" data-name="Path 14663" d="M96.233,273.209a.833.833,0,0,1,.811.657c.038.173.091.421.149.691.107.5.227,1.054.3,1.39a10.17,10.17,0,0,1,2.319.963l1.78-1.155a.837.837,0,0,1,.454-.134h0a.832.832,0,0,1,.594.247l2.042,2.049a.833.833,0,0,1,.193.88v.035l-.079.124-1.149,1.789a9.977,9.977,0,0,1,.962,2.311l3.473.753-.766.383a.834.834,0,0,1,.009.141v2.947l0,.03a.84.84,0,0,1-.562.7l-.029.01-2.112.45a10.334,10.334,0,0,1-.961,2.322l1.147,1.786a.84.84,0,0,1-.115,1.047l-2.045,2.045a.837.837,0,0,1-.873.189h-.039l-.124-.08-1.788-1.156a10.446,10.446,0,0,1-2.341.977l-.452,2.076a.841.841,0,0,1-.817.663H93.317a.834.834,0,0,1-.811-.656l-.011-.052c-.055-.257-.138-.635-.22-1.013s-.168-.771-.223-1.026a10.193,10.193,0,0,1-2.293-.968l-1.527.989.216.216H87.9a.837.837,0,0,1-1.022-.158l-2.052-2.052-.017-.021a.831.831,0,0,1-.019-1.023l1.146-1.767a9.892,9.892,0,0,1-.966-2.321l-2.118-.418a.856.856,0,0,1-.648-.8v-2.942a.841.841,0,0,1,.666-.819l2.072-.443a9.923,9.923,0,0,1,1.023-2.321l-1.136-1.761a.831.831,0,0,1,.019-1.023l.017-.021,2.054-2.07a.837.837,0,0,1,1.047-.115l1.8,1.157a9.928,9.928,0,0,1,2.319-.963l.448-2.1a.847.847,0,0,1,.807-.638h2.9Zm-.138,1H93.471l-.441,2.067a.838.838,0,0,1-.591.609l-.006,0a8.928,8.928,0,0,0-2.251.933.829.829,0,0,1-.863,0l-.009-.006-1.779-1.145L85.709,278.5l1.161,1.8a.825.825,0,0,1,0,.869,8.926,8.926,0,0,0-.991,2.239.826.826,0,0,1-.614.6l-.01,0-2.053.439v2.656l2.087.412a.825.825,0,0,1,.623.614,8.888,8.888,0,0,0,.933,2.239.842.842,0,0,1,0,.862l-.01.016-1.162,1.791,1.837,1.837,1.811-1.173a.829.829,0,0,1,.863,0,9.193,9.193,0,0,0,2.232.942l.022.007a.855.855,0,0,1,.568.605l0,.019c.052.242.149.689.243,1.12.074.34.148.68.2.933h2.622l.446-2.052a.816.816,0,0,1,.6-.627,9.443,9.443,0,0,0,2.272-.948.829.829,0,0,1,.862,0l.01.006,1.766,1.142L103.892,293l-1.138-1.772a.819.819,0,0,1-.008-.865,9.333,9.333,0,0,0,.932-2.256.826.826,0,0,1,.626-.6l2.022-.431v-2.627l-2.024-.439a.816.816,0,0,1-.632-.606,8.975,8.975,0,0,0-.932-2.239.825.825,0,0,1,0-.863l.005-.008,1.135-1.768-1.855-1.862-1.773,1.151a.83.83,0,0,1-.862,0,9.167,9.167,0,0,0-2.247-.932.815.815,0,0,1-.6-.625c-.073-.321-.207-.945-.325-1.5Zm-1.325,6.539a5.024,5.024,0,0,1,3.559,8.569,5.024,5.024,0,0,1-4.688,1.351l-.194-.045,0-.005a5.024,5.024,0,0,1,.932-9.854C94.506,280.753,94.638,280.748,94.769,280.748Zm0,9.047a4.051,4.051,0,0,0,2.851-1.184,4.023,4.023,0,0,0-2.85-6.862c-.1,0-.211,0-.315.012a4.023,4.023,0,0,0-.588,7.931l.023.005A4.031,4.031,0,0,0,94.769,289.795Z" transform="translate(0 -250.121)" fill="#161616"/>
    <path id="Path_14664" data-name="Path 14664" d="M387.569,367.559a.652.652,0,0,1,.342.1h.122l.723,1.584a7.312,7.312,0,0,1,1.425.263l1-1,.033-.024a.684.684,0,0,1,.786-.01l1.876,1.215a.664.664,0,0,1,.271.8l-.512,1.365a7.051,7.051,0,0,1,.792,1.147h1.058l0-.014.375.014a.677.677,0,0,1,.578.373l.026.023.021.1a.677.677,0,0,1,.016.076l.463,2.188a.669.669,0,0,1-.4.757l-.009,0-1.268.572a7.064,7.064,0,0,1-.26,1.393l1.083,1.055.016.018a.659.659,0,0,1,.118.648v.029l-.045.07a.668.668,0,0,1-.045.069l-1.362,2.112h-.211a.832.832,0,0,1-.211.027.915.915,0,0,1-.313-.057l0,0-1.266-.474a7.4,7.4,0,0,1-1.143.785V384.2a.671.671,0,0,1-.537.638l-2.209.475a.658.658,0,0,1-.126.012.713.713,0,0,1-.649-.467l-.605-1.2a7.12,7.12,0,0,1-1.407-.257l-1.054,1.054-.051.031a.677.677,0,0,1-.706,0l0,0-1.971-1.23a.666.666,0,0,1-.245-.787l.5-1.337a7.008,7.008,0,0,1-.811-1.178h-1.414a.662.662,0,0,1-.406-.13h-.172l-.084-.4-.468-2.21a.68.68,0,0,1,.353-.734l.024-.012,1.29-.582a7.78,7.78,0,0,1,.269-1.449l-.964-1.116a.65.65,0,0,1-.029-.832l1.349-2.1h.215a.825.825,0,0,1,.209-.027.911.911,0,0,1,.311.057l0,0,1.271.476a7.558,7.558,0,0,1,1.145-.79V368.7a.661.661,0,0,1,.529-.654l2.2-.464A.652.652,0,0,1,387.569,367.559Zm-.179,1.1h-.021l-.017-.044-1.665.351v1.344a.648.648,0,0,1-.37.6,6.556,6.556,0,0,0-1.29.9l-.038.034-.044.026a.668.668,0,0,1-.62.026l-1.262-.472-.929,1.443.962,1.114.017.026a.642.642,0,0,1,.049.63,6.776,6.776,0,0,0-.271,1.506.664.664,0,0,1-.378.576l-.008,0-1.231.555.356,1.68H382a.669.669,0,0,1,.578.365,6,6,0,0,0,.89,1.292.68.68,0,0,1,.146.648l-.011.032-.479,1.277,1.49.929.953-.953a.667.667,0,0,1,.667-.153,6.119,6.119,0,0,0,1.549.283h.008a.656.656,0,0,1,.557.386l.615,1.223,1.692-.364v-1.34a.653.653,0,0,1,.356-.6,6.4,6.4,0,0,0,1.3-.9l.033-.03.038-.023a.654.654,0,0,1,.628-.031l1.258.471.923-1.43-1-.971a.668.668,0,0,1-.18-.664l.006-.02a6.062,6.062,0,0,0,.29-1.536.669.669,0,0,1,.363-.567l.023-.011,1.238-.558L395.576,374H394.21a.669.669,0,0,1-.578-.365,6.045,6.045,0,0,0-.9-1.291l-.036-.04-.027-.046a.671.671,0,0,1-.026-.62l.47-1.253-1.458-.945-.975.975-.033.024a.639.639,0,0,1-.651.055,6.309,6.309,0,0,0-1.5-.268.655.655,0,0,1-.573-.387Zm.742,4.716h0a3.156,3.156,0,0,1,3.065,2.474v0a3.147,3.147,0,0,1-.435,2.357,3.113,3.113,0,0,1-1.974,1.367,2.808,2.808,0,0,1-.67.073H388.1a3.133,3.133,0,0,1-.63-6.2,3.272,3.272,0,0,1,.657-.072Zm2.091,2.688a2.155,2.155,0,0,0-2.09-1.687,2.27,2.27,0,0,0-.455.05h0a2.132,2.132,0,0,0,.427,4.221h.031a1.8,1.8,0,0,0,.437-.048l.013,0a2.106,2.106,0,0,0,1.327-.906h0l.016-.024A2.14,2.14,0,0,0,390.222,376.063Z" transform="translate(-271.042 -336.219)" fill="#161616"/>
  </g>
</svg>
