<svg xmlns="http://www.w3.org/2000/svg" width="70.028" height="50" viewBox="0 0 70.028 50">
  <g id="noun-consulting-2315957" transform="translate(-57.318 -114.139)">
    <g id="Group_887" data-name="Group 887" transform="translate(57.318 114.139)">
      <g id="Group_879" data-name="Group 879" transform="translate(0 40.835)">
        <path id="Path_2755" data-name="Path 2755" d="M119.474,355.264H65.189a.728.728,0,0,1-.533-.233l-7.143-7.7a.732.732,0,0,1,.533-1.231h68.571a.732.732,0,0,1,.533,1.231l-7.143,7.7A.727.727,0,0,1,119.474,355.264ZM65.506,353.8h53.651l5.785-6.237H59.721Z" transform="translate(-57.318 -346.099)"/>
      </g>
      <g id="Group_880" data-name="Group 880" transform="translate(6.078 11.41)">
        <path id="Path_2756" data-name="Path 2756" d="M148.767,210.358H92.374a.73.73,0,0,1-.728-.732V181.392a2.016,2.016,0,0,1,2.011-2.017h7.691a.73.73,0,0,1,.728.732v6.969h6.966a.727.727,0,0,1,.6.322.735.735,0,0,1,.072.683l-1.734,4.341,8.368-5.235a.724.724,0,0,1,.385-.11h22.351v-6.969a.73.73,0,0,1,.728-.732h7.692a2.016,2.016,0,0,1,2.012,2.017V209.6A.755.755,0,0,1,148.767,210.358ZM93.1,208.894h54.961v-27.5a.562.562,0,0,0-.556-.553h-6.964v6.969a.73.73,0,0,1-.728.732H116.943l-10.081,6.307a.725.725,0,0,1-.852-.061.735.735,0,0,1-.208-.834l2.162-5.412h-6.617a.73.73,0,0,1-.728-.732v-6.969H93.657a.555.555,0,0,0-.555.553v27.5Z" transform="translate(-91.646 -179.375)"/>
      </g>
      <g id="Group_881" data-name="Group 881" transform="translate(11.071 16.524)">
        <path id="Path_2757" data-name="Path 2757" d="M167.927,234.219h-46.42a.732.732,0,0,1-.732-.732V209.1a.732.732,0,0,1,.732-.732h3.868a.732.732,0,0,1,.732.732v1.835h7.005a.732.732,0,0,1,.679,1l-1.744,4.341,8.415-5.235a.731.731,0,0,1,.387-.11h22.478V209.1a.732.732,0,0,1,.732-.732h3.868a.732.732,0,0,1,.732.732v24.386A.732.732,0,0,1,167.927,234.219Zm-45.688-1.464H167.2V209.833h-2.4v1.835a.732.732,0,0,1-.732.732h-23l-10.138,6.307a.732.732,0,0,1-1.066-.894l2.175-5.412h-6.654a.732.732,0,0,1-.732-.732v-1.835h-2.4v22.922Z" transform="translate(-120.775 -208.369)"/>
      </g>
      <g id="Group_882" data-name="Group 882" transform="translate(14.94 0)">
        <path id="Path_2758" data-name="Path 2758" d="M148.513,141.271a.732.732,0,0,1-.679-1l2.175-5.412h-6.654a.732.732,0,0,1-.732-.732V114.871a.732.732,0,0,1,.732-.732h38.684a.732.732,0,0,1,.732.732v19.251a.732.732,0,0,1-.732.732h-23L148.9,141.161A.732.732,0,0,1,148.513,141.271Zm-4.427-7.881h7.005a.732.732,0,0,1,.679,1l-1.744,4.341,8.415-5.235a.731.731,0,0,1,.387-.11h22.478V115.6h-37.22Z" transform="translate(-142.622 -114.139)"/>
      </g>
      <g id="Group_883" data-name="Group 883" transform="translate(35.11 23.598)">
        <path id="Path_2759" data-name="Path 2759" d="M274.367,249.527H257.6a.732.732,0,0,1,0-1.464h16.764a.732.732,0,1,1,0,1.464Z" transform="translate(-256.871 -248.063)"/>
      </g>
      <g id="Group_884" data-name="Group 884" transform="translate(35.11 28.1)">
        <path id="Path_2760" data-name="Path 2760" d="M274.367,275.076H257.6a.732.732,0,0,1,0-1.464h16.764a.732.732,0,0,1,0,1.464Z" transform="translate(-256.871 -273.612)"/>
      </g>
      <g id="Group_885" data-name="Group 885" transform="translate(35.11 32.602)">
        <path id="Path_2761" data-name="Path 2761" d="M274.367,300.626H257.6a.732.732,0,0,1,0-1.464h16.764a.732.732,0,0,1,0,1.464Z" transform="translate(-256.871 -299.162)"/>
      </g>
      <g id="Group_886" data-name="Group 886" transform="translate(30.364 24.226)">
        <path id="Path_2762" data-name="Path 2762" d="M252.673,266.16h-21.92a.732.732,0,0,1-.732-.732V252.594a.732.732,0,1,1,1.464,0v12.1h21.188a.732.732,0,1,1,0,1.464Z" transform="translate(-230.021 -251.862)"/>
      </g>
      <rect id="Rectangle_1230" data-name="Rectangle 1230" width="2.575" height="2.563" transform="translate(26.021 8.391)"/>
      <rect id="Rectangle_1231" data-name="Rectangle 1231" width="2.575" height="2.563" transform="translate(31.158 8.391)"/>
      <rect id="Rectangle_1232" data-name="Rectangle 1232" width="2.575" height="2.563" transform="translate(36.295 8.391)"/>
      <rect id="Rectangle_1233" data-name="Rectangle 1233" width="2.575" height="2.563" transform="translate(41.431 8.391)"/>
      <rect id="Rectangle_1234" data-name="Rectangle 1234" width="2.575" height="2.563" transform="translate(46.568 8.391)"/>
      <rect id="Rectangle_1235" data-name="Rectangle 1235" width="2.575" height="2.563" transform="translate(20.893 8.391)"/>
    </g>
  </g>
</svg>
