<svg xmlns="http://www.w3.org/2000/svg" width="50" height="49.998" viewBox="0 0 50 49.998">
  <g id="noun-infrastructure-4445938" transform="translate(-1 -1.003)">
    <path id="Path_2960" data-name="Path 2960" d="M25.806,12.859a.8.8,0,0,1-.947.947.8.8,0,0,0-.8.342A7.274,7.274,0,0,0,23,16.679a.8.8,0,0,0,.318.8.8.8,0,0,1,0,1.337.8.8,0,0,0-.318.8,7.274,7.274,0,0,0,1.066,2.531.8.8,0,0,0,.8.342.8.8,0,0,1,.947.947.8.8,0,0,0,.342.8,7.274,7.274,0,0,0,2.531,1.1.8.8,0,0,0,.8-.318.844.844,0,0,1,1.337,0,.8.8,0,0,0,.645.334h.167a7.274,7.274,0,0,0,2.515-1.082.8.8,0,0,0,.342-.8.8.8,0,0,1,.947-.947.8.8,0,0,0,.8-.342,7.274,7.274,0,0,0,1.1-2.531.8.8,0,0,0-.318-.8.8.8,0,0,1,0-1.337.8.8,0,0,0,.318-.8,7.274,7.274,0,0,0-1.066-2.531.8.8,0,0,0-.8-.342.8.8,0,0,1-.947-.947.8.8,0,0,0-.342-.8A7.274,7.274,0,0,0,31.639,11a.8.8,0,0,0-.8.318.844.844,0,0,1-1.337,0,.8.8,0,0,0-.8-.318,7.274,7.274,0,0,0-2.531,1.066A.8.8,0,0,0,25.806,12.859Zm1.592.31a5.738,5.738,0,0,1,1.17-.493,2.475,2.475,0,0,0,3.183,0,5.738,5.738,0,0,1,1.186.493A2.388,2.388,0,0,0,35.165,15.4a5.738,5.738,0,0,1,.478,1.17,2.388,2.388,0,0,0,0,3.183,5.738,5.738,0,0,1-.493,1.186,2.388,2.388,0,0,0-2.228,2.228,5.738,5.738,0,0,1-1.186.493,2.388,2.388,0,0,0-3.183,0,5.738,5.738,0,0,1-1.186-.493,2.388,2.388,0,0,0-2.228-2.228,5.738,5.738,0,0,1-.462-1.186,2.388,2.388,0,0,0,0-3.183,5.738,5.738,0,0,1,.493-1.186A2.388,2.388,0,0,0,27.4,13.153Z" transform="translate(-4.159 -1.888)"/>
    <path id="Path_2961" data-name="Path 2961" d="M31.183,22.367A3.183,3.183,0,1,0,28,19.183,3.183,3.183,0,0,0,31.183,22.367Zm0-4.775a1.592,1.592,0,1,1-1.592,1.592A1.592,1.592,0,0,1,31.183,17.592Z" transform="translate(-5.183 -2.879)"/>
    <path id="Path_2962" data-name="Path 2962" d="M14.888,28.059H26.207v3.183H22.165a3.225,3.225,0,0,0-3.121,2.388H13.271a.8.8,0,0,0-.808.8V39.2H14.08V35.222h4.964a3.225,3.225,0,0,0,3.121,2.388h9.7a3.225,3.225,0,0,0,3.121-2.388h4.964V39.2h1.617V34.426a.8.8,0,0,0-.808-.8H34.988a3.225,3.225,0,0,0-3.121-2.388H27.824V28.059H39.143a8.741,8.741,0,0,0,2.134-17.246,8.11,8.11,0,0,0-9.831-5.571,10.6,10.6,0,0,0-11.518-3.8,10.377,10.377,0,0,0-7.465,9.433,8.755,8.755,0,0,0-6.4,9.633A8.849,8.849,0,0,0,14.888,28.059Zm16.978,4.775a1.592,1.592,0,1,1,0,3.183h-9.7a1.592,1.592,0,1,1,0-3.183ZM13.441,12.286a.8.8,0,0,0,.647-.8l-.008-.143a8.773,8.773,0,0,1,6.366-8.418,8.963,8.963,0,0,1,10,3.643.815.815,0,0,0,.938.318,6.559,6.559,0,0,1,5.3.487,6.375,6.375,0,0,1,3.134,4.233.8.8,0,0,0,.647.629,7.157,7.157,0,0,1-1.318,14.23H14.888a7.154,7.154,0,0,1-1.447-14.182Z" transform="translate(-1.015 0)"/>
    <path id="Path_2963" data-name="Path 2963" d="M25.163,6.592V5A7.163,7.163,0,0,0,18,12.163h1.592a5.571,5.571,0,0,1,5.571-5.571Z" transform="translate(-3.26 -0.816)"/>
    <path id="Path_2964" data-name="Path 2964" d="M1.8,60.55H23.284a.8.8,0,0,0,.8-.8V51.8a.8.8,0,0,0-.8-.8H1.8a.8.8,0,0,0-.8.8v7.958A.8.8,0,0,0,1.8,60.55Zm.8-7.958h19.9v6.367H2.592Z" transform="translate(0 -9.55)"/>
    <rect id="Rectangle_1284" data-name="Rectangle 1284" width="2" height="2" transform="translate(3.671 45.329)"/>
    <rect id="Rectangle_1285" data-name="Rectangle 1285" width="1" height="2" transform="translate(7.671 45.329)"/>
    <rect id="Rectangle_1286" data-name="Rectangle 1286" width="9" height="2" transform="translate(10.829 45.329)"/>
    <path id="Path_2965" data-name="Path 2965" d="M56.284,51H34.8a.8.8,0,0,0-.8.8v7.958a.8.8,0,0,0,.8.8H56.284a.8.8,0,0,0,.8-.8V51.8A.8.8,0,0,0,56.284,51Zm-.8,7.958h-19.9V52.592h19.9Z" transform="translate(-6.08 -9.55)"/>
    <rect id="Rectangle_1287" data-name="Rectangle 1287" width="2" height="2" transform="translate(46.329 45.329)"/>
    <rect id="Rectangle_1288" data-name="Rectangle 1288" width="1" height="2" transform="translate(43.329 45.329)"/>
    <rect id="Rectangle_1289" data-name="Rectangle 1289" width="9" height="2" transform="translate(32.171 45.329)"/>
    <rect id="Rectangle_1290" data-name="Rectangle 1290" width="1" height="2" transform="translate(21.952 34.125)"/>
    <rect id="Rectangle_1291" data-name="Rectangle 1291" width="2" height="2" transform="translate(25 34.125)"/>
    <rect id="Rectangle_1292" data-name="Rectangle 1292" width="1" height="2" transform="translate(29.048 34.125)"/>
  </g>
</svg>
